<svg width="1200" height="500" viewBox="0 0 1200 500" fill="none" xmlns="http://www.w3.org/2000/svg">
<rect width="1200" height="500" fill="#121212"/>
<path d="M577.224 212H581.664V250.16H605.184V254H577.224V212ZM649.714 254.36C644.274 254.36 640.034 252.8 636.994 249.68C633.954 246.56 632.434 242.02 632.434 236.06V212H636.874V235.88C636.874 240.76 637.974 244.4 640.174 246.8C642.374 249.2 645.554 250.4 649.714 250.4C653.914 250.4 657.114 249.2 659.314 246.8C661.514 244.4 662.614 240.76 662.614 235.88V212H666.934V236.06C666.934 242.02 665.414 246.56 662.374 249.68C659.374 252.8 655.154 254.36 649.714 254.36ZM727.068 254L713.508 235.52L700.008 254H694.908L710.868 232.4L695.928 212H701.028L713.688 229.16L726.288 212H731.088L716.208 232.28L732.228 254H727.068ZM765.603 254.36C763.203 254.36 760.983 253.84 758.943 252.8C756.903 251.76 755.243 250.28 753.963 248.36L756.603 245.36C758.923 248.8 761.943 250.52 765.663 250.52C770.863 250.52 773.463 247.44 773.463 241.28V215.84H758.103V212H777.843V241.1C777.843 245.5 776.803 248.82 774.723 251.06C772.683 253.26 769.643 254.36 765.603 254.36ZM823.741 254.36C820.621 254.36 817.621 253.86 814.741 252.86C811.901 251.86 809.701 250.54 808.141 248.9L809.881 245.48C811.401 247 813.421 248.24 815.941 249.2C818.461 250.12 821.061 250.58 823.741 250.58C827.501 250.58 830.321 249.9 832.201 248.54C834.081 247.14 835.021 245.34 835.021 243.14C835.021 241.46 834.501 240.12 833.461 239.12C832.461 238.12 831.221 237.36 829.741 236.84C828.261 236.28 826.201 235.68 823.561 235.04C820.401 234.24 817.881 233.48 816.001 232.76C814.121 232 812.501 230.86 811.141 229.34C809.821 227.82 809.161 225.76 809.161 223.16C809.161 221.04 809.721 219.12 810.841 217.4C811.961 215.64 813.681 214.24 816.001 213.2C818.321 212.16 821.201 211.64 824.641 211.64C827.041 211.64 829.381 211.98 831.661 212.66C833.981 213.3 835.981 214.2 837.661 215.36L836.161 218.9C834.401 217.74 832.521 216.88 830.521 216.32C828.521 215.72 826.561 215.42 824.641 215.42C820.961 215.42 818.181 216.14 816.301 217.58C814.461 218.98 813.541 220.8 813.541 223.04C813.541 224.72 814.041 226.08 815.041 227.12C816.081 228.12 817.361 228.9 818.881 229.46C820.441 229.98 822.521 230.56 825.121 231.2C828.201 231.96 830.681 232.72 832.561 233.48C834.481 234.2 836.101 235.32 837.421 236.84C838.741 238.32 839.401 240.34 839.401 242.9C839.401 245.02 838.821 246.96 837.661 248.72C836.541 250.44 834.801 251.82 832.441 252.86C830.081 253.86 827.181 254.36 823.741 254.36Z" fill="white"/>
<path d="M583.154 268.946C583.798 269.086 584.293 269.366 584.638 269.786C584.993 270.197 585.17 270.729 585.17 271.382C585.17 272.222 584.857 272.871 584.232 273.328C583.616 273.776 582.701 274 581.488 274H576.98V264.2H581.208C582.3 264.2 583.145 264.419 583.742 264.858C584.349 265.297 584.652 265.917 584.652 266.72C584.652 267.261 584.517 267.723 584.246 268.106C583.985 268.479 583.621 268.759 583.154 268.946ZM578.016 265.054V268.61H581.138C581.931 268.61 582.543 268.461 582.972 268.162C583.401 267.854 583.616 267.411 583.616 266.832C583.616 266.253 583.401 265.815 582.972 265.516C582.543 265.208 581.931 265.054 581.138 265.054H578.016ZM581.474 273.146C582.351 273.146 583.014 272.997 583.462 272.698C583.91 272.399 584.134 271.933 584.134 271.298C584.134 270.075 583.247 269.464 581.474 269.464H578.016V273.146H581.474ZM595.589 270.612V274H594.567V270.612L590.647 264.2H591.753L595.113 269.702L598.473 264.2H599.509L595.589 270.612ZM617.282 274.084C616.554 274.084 615.854 273.967 615.182 273.734C614.52 273.501 614.006 273.193 613.642 272.81L614.048 272.012C614.403 272.367 614.874 272.656 615.462 272.88C616.05 273.095 616.657 273.202 617.282 273.202C618.16 273.202 618.818 273.043 619.256 272.726C619.695 272.399 619.914 271.979 619.914 271.466C619.914 271.074 619.793 270.761 619.55 270.528C619.317 270.295 619.028 270.117 618.682 269.996C618.337 269.865 617.856 269.725 617.24 269.576C616.503 269.389 615.915 269.212 615.476 269.044C615.038 268.867 614.66 268.601 614.342 268.246C614.034 267.891 613.88 267.411 613.88 266.804C613.88 266.309 614.011 265.861 614.272 265.46C614.534 265.049 614.935 264.723 615.476 264.48C616.018 264.237 616.69 264.116 617.492 264.116C618.052 264.116 618.598 264.195 619.13 264.354C619.672 264.503 620.138 264.713 620.53 264.984L620.18 265.81C619.77 265.539 619.331 265.339 618.864 265.208C618.398 265.068 617.94 264.998 617.492 264.998C616.634 264.998 615.985 265.166 615.546 265.502C615.117 265.829 614.902 266.253 614.902 266.776C614.902 267.168 615.019 267.485 615.252 267.728C615.495 267.961 615.794 268.143 616.148 268.274C616.512 268.395 616.998 268.531 617.604 268.68C618.323 268.857 618.902 269.035 619.34 269.212C619.788 269.38 620.166 269.641 620.474 269.996C620.782 270.341 620.936 270.813 620.936 271.41C620.936 271.905 620.801 272.357 620.53 272.768C620.269 273.169 619.863 273.491 619.312 273.734C618.762 273.967 618.085 274.084 617.282 274.084ZM631.132 269.394L629.13 271.424V274H628.094V264.2H629.13V270.122L634.884 264.2H636.074L631.832 268.638L636.368 274H635.136L631.132 269.394ZM645.65 270.612V274H644.628V270.612L640.708 264.2H641.814L645.174 269.702L648.534 264.2H649.57L645.65 270.612ZM655.872 264.2H656.908V273.104H662.396V274H655.872V264.2ZM669.016 264.2H670.052V274H669.016V264.2ZM684.287 274L681.123 269.688L677.973 274H676.783L680.507 268.96L677.021 264.2H678.211L681.165 268.204L684.105 264.2H685.225L681.753 268.932L685.491 274H684.287Z" fill="white"/>
<path d="M411.099 224.059H387.642C385.552 224.059 384.432 226.516 385.802 228.094L406.826 252.303C407.689 253.297 407.607 254.797 406.64 255.691L358.788 299.906C357.159 301.412 358.224 304.133 360.442 304.133H384.97C385.596 304.133 386.198 303.892 386.651 303.461L436.775 255.698C437.72 254.797 437.787 253.312 436.928 252.329L412.933 224.892C412.471 224.363 411.802 224.059 411.099 224.059Z" fill="white"/>
<path d="M477.669 283.941H501.126C503.216 283.941 504.336 281.484 502.966 279.906L481.942 255.697C481.078 254.703 481.161 253.203 482.128 252.309L529.98 208.094C531.609 206.588 530.544 203.867 528.326 203.867H503.798C503.172 203.867 502.57 204.108 502.117 204.539L451.993 252.302C451.048 253.203 450.98 254.688 451.839 255.671L475.835 283.108C476.297 283.637 476.966 283.941 477.669 283.941Z" fill="white"/>
<path d="M411.099 224.059H387.642C385.552 224.059 384.432 226.516 385.802 228.094L406.826 252.303C407.689 253.297 407.607 254.797 406.64 255.691L358.788 299.906C357.159 301.412 358.224 304.133 360.442 304.133H384.97C385.596 304.133 386.198 303.892 386.651 303.461L436.775 255.698C437.72 254.797 437.787 253.312 436.928 252.329L412.933 224.892C412.471 224.363 411.802 224.059 411.099 224.059Z" stroke="black"/>
<path d="M477.669 283.941H501.126C503.216 283.941 504.336 281.484 502.966 279.906L481.942 255.697C481.078 254.703 481.161 253.203 482.128 252.309L529.98 208.094C531.609 206.588 530.544 203.867 528.326 203.867H503.798C503.172 203.867 502.57 204.108 502.117 204.539L451.993 252.302C451.048 253.203 450.98 254.688 451.839 255.671L475.835 283.108C476.297 283.637 476.966 283.941 477.669 283.941Z" stroke="black"/>
</svg>
